<?xml version="1.0" encoding="utf-8"?>
<!-- Generator: Adobe Illustrator 15.1.0, SVG Export Plug-In . SVG Version: 6.00 Build 0)  -->
<!DOCTYPE svg PUBLIC "-//W3C//DTD SVG 1.1//EN" "http://www.w3.org/Graphics/SVG/1.1/DTD/svg11.dtd">
<svg version="1.1" id="Layer_1" xmlns="http://www.w3.org/2000/svg" xmlns:xlink="http://www.w3.org/1999/xlink" x="0px" y="0px"
	 width="512px" height="512px" viewBox="0 0 512 512" enable-background="new 0 0 512 512" xml:space="preserve">
<g id="svgGrid" display="none">
	<line display="inline" fill="none" stroke="#B35047" x1="32" y1="0" x2="32" y2="512"/>
	<line display="inline" fill="none" stroke="#B35047" x1="64" y1="0" x2="64" y2="512"/>
	<line display="inline" fill="none" stroke="#B35047" x1="96" y1="0" x2="96" y2="512"/>
	<line display="inline" fill="none" stroke="#B35047" x1="128" y1="0" x2="128" y2="512"/>
	<line display="inline" fill="none" stroke="#B35047" x1="160" y1="0" x2="160" y2="512"/>
	<line display="inline" fill="none" stroke="#B35047" x1="192" y1="0" x2="192" y2="512"/>
	<line display="inline" fill="none" stroke="#B35047" x1="224" y1="0" x2="224" y2="512"/>
	<line display="inline" fill="none" stroke="#B35047" x1="256" y1="0" x2="256" y2="512"/>
	<line display="inline" fill="none" stroke="#B35047" x1="288" y1="0" x2="288" y2="512"/>
	<line display="inline" fill="none" stroke="#B35047" x1="320" y1="0" x2="320" y2="512"/>
	<line display="inline" fill="none" stroke="#B35047" x1="352" y1="0" x2="352" y2="512"/>
	<line display="inline" fill="none" stroke="#B35047" x1="384" y1="0" x2="384" y2="512"/>
	<line display="inline" fill="none" stroke="#B35047" x1="416" y1="0" x2="416" y2="512"/>
	<line display="inline" fill="none" stroke="#B35047" x1="448" y1="0" x2="448" y2="512"/>
	<line display="inline" fill="none" stroke="#B35047" x1="480" y1="0" x2="480" y2="512"/>
	<line display="inline" fill="none" stroke="#B35047" x1="0" y1="32" x2="512" y2="32"/>
	<line display="inline" fill="none" stroke="#B35047" x1="0" y1="64" x2="512" y2="64"/>
	<line display="inline" fill="none" stroke="#B35047" x1="0" y1="96" x2="512" y2="96"/>
	<line display="inline" fill="none" stroke="#B35047" x1="0" y1="128" x2="512" y2="128"/>
	<line display="inline" fill="none" stroke="#B35047" x1="0" y1="160" x2="512" y2="160"/>
	<line display="inline" fill="none" stroke="#B35047" x1="0" y1="192" x2="512" y2="192"/>
	<line display="inline" fill="none" stroke="#B35047" x1="0" y1="224" x2="512" y2="224"/>
	<line display="inline" fill="none" stroke="#B35047" x1="0" y1="256" x2="512" y2="256"/>
	<line display="inline" fill="none" stroke="#B35047" x1="0" y1="288" x2="512" y2="288"/>
	<line display="inline" fill="none" stroke="#B35047" x1="0" y1="320" x2="512" y2="320"/>
	<line display="inline" fill="none" stroke="#B35047" x1="0" y1="352" x2="512" y2="352"/>
	<line display="inline" fill="none" stroke="#B35047" x1="0" y1="384" x2="512" y2="384"/>
	<line display="inline" fill="none" stroke="#B35047" x1="0" y1="416" x2="512" y2="416"/>
	<line display="inline" fill="none" stroke="#B35047" x1="0" y1="448" x2="512" y2="448"/>
	<line display="inline" fill="none" stroke="#B35047" x1="0" y1="480" x2="512" y2="480"/>
	<rect x="0" y="0" display="inline" fill="none" stroke="#B35047" width="512" height="512"/>
</g>
<g>
	<path fill="#1D1D1B" d="M226.282,356.385c-0.731-0.535-7.733-5.154-26.993-5.154H63.115c-1.513,0-2.737,1.232-2.737,2.738
		c0,1.52,1.224,2.74,2.737,2.74H199.29c17.327,0,23.652,4.021,23.83,4.146c0.479,0.324,1.027,0.485,1.569,0.485
		c0.853,0,1.696-0.398,2.226-1.146C227.792,358.975,227.511,357.258,226.282,356.385z"/>
	<path fill="#1D1D1B" d="M63.115,327.721h136.169c17.33,0,23.646,4.034,23.832,4.159c0.477,0.336,1.025,0.498,1.572,0.498
		c0.856,0,1.684-0.398,2.22-1.146c0.887-1.232,0.613-2.938-0.619-3.822c-0.738-0.536-7.733-5.181-27.005-5.181H63.115
		c-1.517,0-2.75,1.232-2.75,2.739C60.365,326.489,61.598,327.721,63.115,327.721z"/>
	<path fill="#1D1D1B" d="M63.115,298.734h136.169c17.323,0,23.633,4.046,23.817,4.172c0.486,0.336,1.04,0.498,1.587,0.498
		c0.85,0,1.684-0.399,2.22-1.133c0.893-1.233,0.619-2.952-0.604-3.836c-0.741-0.536-7.742-5.205-27.02-5.205H63.115
		c-1.517,0-2.755,1.232-2.755,2.753C60.36,297.502,61.598,298.734,63.115,298.734z"/>
	<path fill="#1D1D1B" d="M63.115,269.746h136.169c17.323,0,23.627,4.061,23.811,4.185c0.486,0.336,1.046,0.511,1.594,0.511
		c0.856,0,1.69-0.399,2.226-1.146c0.894-1.233,0.626-2.952-0.604-3.849c-0.741-0.535-7.749-5.22-27.026-5.22H63.115
		c-1.517,0-2.762,1.235-2.762,2.755S61.598,269.746,63.115,269.746z"/>
	<path fill="#1D1D1B" d="M63.115,240.747h136.169c17.308,0,23.621,4.087,23.798,4.208c0.492,0.343,1.052,0.511,1.606,0.511
		c0.85,0,1.69-0.396,2.226-1.136c0.906-1.229,0.639-2.958-0.591-3.857c-0.741-0.535-7.748-5.254-27.039-5.254H63.115
		c-1.525,0-2.768,1.238-2.768,2.761C60.347,239.51,61.59,240.747,63.115,240.747z"/>
	<path fill="#1D1D1B" d="M63.115,211.753h136.169c17.308,0,23.608,4.106,23.792,4.228c0.492,0.346,1.052,0.517,1.612,0.517
		c0.85,0,1.684-0.389,2.226-1.137c0.906-1.223,0.645-2.957-0.585-3.862c-0.741-0.536-7.754-5.286-27.045-5.286H63.115
		c-1.532,0-2.774,1.245-2.774,2.768C60.341,210.516,61.583,211.753,63.115,211.753z"/>
	<path fill="#1D1D1B" d="M63.115,182.765h136.169c17.295,0,23.608,4.118,23.786,4.246c0.492,0.345,1.059,0.517,1.619,0.517
		c0.85,0,1.69-0.396,2.232-1.136c0.913-1.23,0.651-2.964-0.585-3.876c-0.741-0.542-7.754-5.305-27.051-5.305H63.115
		c-1.532,0-2.78,1.245-2.78,2.773C60.335,181.523,61.583,182.765,63.115,182.765z"/>
	<path fill="#1D1D1B" d="M63.115,153.777h136.169c17.295,0,23.602,4.131,23.773,4.259c0.498,0.358,1.065,0.523,1.631,0.523
		c0.85,0,1.684-0.396,2.232-1.13c0.919-1.23,0.657-2.977-0.573-3.889c-0.741-0.542-7.757-5.329-27.063-5.329H63.115
		c-1.538,0-2.787,1.242-2.787,2.779C60.328,152.529,61.577,153.777,63.115,153.777z"/>
	<path fill="#1D1D1B" d="M63.115,124.784h136.169c17.289,0,23.59,4.149,23.767,4.277c0.498,0.357,1.071,0.528,1.637,0.528
		c0.85,0,1.684-0.395,2.232-1.127c0.925-1.229,0.669-2.985-0.573-3.897c-0.734-0.548-7.751-5.36-27.063-5.36H63.115
		c-1.538,0-2.787,1.252-2.787,2.793C60.328,123.536,61.577,124.784,63.115,124.784z"/>
	<path fill="#1D1D1B" d="M284.193,274.328c0.535,0,1.059-0.161,1.543-0.472c0.063-0.038,6.339-4.135,23.846-4.135h136.16
		c1.519,0,2.738-1.232,2.738-2.739c0-1.52-1.22-2.742-2.738-2.742h-136.16c-19.264,0-26.273,4.622-27.008,5.146
		c-1.208,0.871-1.494,2.553-0.635,3.772C282.468,273.936,283.321,274.328,284.193,274.328z"/>
	<path fill="#1D1D1B" d="M284.193,245.335c0.535,0,1.07-0.146,1.543-0.473c0.063-0.044,6.339-4.144,23.846-4.144h136.16
		c1.519,0,2.738-1.224,2.738-2.733c0-1.519-1.22-2.742-2.738-2.742h-136.16c-19.264,0-26.273,4.623-27.008,5.146
		c-1.208,0.865-1.494,2.55-0.635,3.773C282.468,244.933,283.321,245.335,284.193,245.335z"/>
	<path fill="#1D1D1B" d="M284.193,216.342c0.535,0,1.083-0.135,1.543-0.474c0.063-0.05,6.339-4.149,23.846-4.149h136.16
		c1.519,0,2.738-1.218,2.738-2.733c0-1.513-1.22-2.742-2.738-2.742h-136.16c-19.264,0-26.273,4.623-27.008,5.146
		c-1.208,0.865-1.494,2.556-0.635,3.779C282.468,215.939,283.321,216.342,284.193,216.342z"/>
	<path fill="#1D1D1B" d="M284.193,187.341c0.535,0,1.07-0.146,1.543-0.47c0.063-0.047,6.339-4.146,23.846-4.146h136.16
		c1.519,0,2.738-1.224,2.738-2.732c0-1.52-1.22-2.743-2.738-2.743h-136.16c-19.264,0-26.273,4.623-27.008,5.146
		c-1.208,0.865-1.494,2.549-0.635,3.772C282.468,186.94,283.321,187.341,284.193,187.341z"/>
	<path fill="#1D1D1B" d="M284.193,158.341c0.535,0,1.059-0.165,1.543-0.473c0.063-0.037,6.339-4.137,23.846-4.137h136.16
		c1.519,0,2.738-1.224,2.738-2.733c0-1.525-1.22-2.742-2.738-2.742h-136.16c-19.264,0-26.273,4.622-27.008,5.146
		c-1.208,0.865-1.494,2.543-0.635,3.767C282.468,157.939,283.321,158.341,284.193,158.341z"/>
	<path fill="#1D1D1B" d="M284.193,129.347c0.535,0,1.07-0.152,1.543-0.471c0.063-0.046,6.339-4.146,23.846-4.146h136.16
		c1.519,0,2.738-1.223,2.738-2.732c0-1.52-1.22-2.742-2.738-2.742h-136.16c-19.264,0-26.273,4.622-27.008,5.146
		c-1.208,0.865-1.494,2.549-0.635,3.772C282.468,128.946,283.321,129.347,284.193,129.347z"/>
	<path fill="#1D1D1B" d="M492.672,95.737H485.2V84.051c0-3.284-2.665-5.948-5.951-5.948H284.491
		c-15.328,0-24.07,5.771-28.963,11.331c-4.887-5.56-13.623-11.331-28.956-11.331H31.821c-3.284,0-5.949,2.664-5.949,5.948v11.687
		H18.4c-10.148,0-18.397,10.481-18.397,23.372v280.521c0,12.899,10.487,23.385,23.378,23.385h197.787
		c4.393,3.324,16.328,10.882,34.451,10.882c18.102,0,29.932-7.545,34.302-10.882h198.704c12.889,0,23.373-10.485,23.373-23.385
		V119.109C511.997,106.219,503.33,95.737,492.672,95.737z M260.073,104.727c0.099-0.109,0.162-0.225,0.249-0.346
		c0.273-0.383,0.461-0.784,0.635-1.217c0.088-0.225,0.249-0.39,0.323-0.626c0.138-0.511,3.848-12.533,23.211-12.533h188.806v170.77
		c-1.85,4.215-4.744,8.155-8.704,11.779c-0.188,0.112-0.398,0.168-0.548,0.305l-3.25,2.783
		c-22.525,16.828-64.071,20.844-83.097,16.163c-1.339-0.33-2.715-0.057-3.798,0.758c-0.243,0.182-0.38,0.455-0.579,0.686h-63.74
		c-19.264,0-26.273,4.613-27.008,5.137c-1.208,0.871-1.494,2.553-0.635,3.772c0.522,0.772,1.382,1.171,2.254,1.171
		c0.535,0,1.07-0.149,1.543-0.473c0.063-0.037,6.339-4.135,23.846-4.135h62.427c-0.088,1.601-0.236,3.779-0.498,6.469l-0.841,7.247
		c-0.411,2.988-0.99,6.332-1.656,9.793h-59.432c-19.264,0-26.273,4.62-27.008,5.143c-1.208,0.872-1.481,2.553-0.635,3.785
		c0.535,0.772,1.382,1.171,2.254,1.171c0.535,0,1.07-0.149,1.543-0.473c0.063-0.051,6.339-4.146,23.846-4.146h58.312
		c-1.276,5.609-2.933,11.536-5.087,17.426l-2.452,6.096h-50.772c-19.264,0-26.273,4.619-27.008,5.143
		c-1.208,0.871-1.494,2.553-0.635,3.785c0.522,0.76,1.382,1.17,2.254,1.17c0.535,0,1.07-0.161,1.543-0.473
		c0.063-0.051,6.339-4.146,23.846-4.146h48.201c-3.35,6.655-7.44,12.924-12.54,18.191l-2.957,2.54
		c-0.305,0.28-0.523,0.623-0.735,0.965c-5.13,4.409-11.149,7.814-18.153,9.831h-38.905c-11.581,0-19.319,3.412-24.418,7.197V104.727
		z M466.392,282.552c0.181-0.13,0.381-0.255,0.566-0.397c2.404-1.83,4.446-3.816,6.339-5.865v111.947H343.076
		c2.963-2.054,5.796-4.289,8.354-6.916L466.392,282.552z M368.721,354.748c7.651-17.481,11.225-37.193,12.153-53.33
		c14.463,2.179,35.791,0.971,55.347-4.651L368.721,354.748z M37.776,355.377V90.006h188.796c19.266,0,23.036,11.895,23.213,12.526
		c0.078,0.274,0.255,0.486,0.371,0.741c0.14,0.317,0.268,0.629,0.458,0.925c0.122,0.189,0.224,0.396,0.37,0.572v290.664
		c-5.092-3.798-12.844-7.197-24.411-7.197H37.776V355.377z M500.13,399.631c0,6.35-5.167,11.518-11.506,11.518h-200.41
		c-0.05,0-0.087,0.024-0.137,0.024c-1.52-0.062-3.063,0.449-4.271,1.545c-0.412,0.386-10.398,9.314-28.188,9.314
		c-15.07,0-24.577-6.364-27.425-8.568c-1.087-1.381-2.699-2.315-4.592-2.315H23.381c-6.344,0-11.509-5.168-11.509-11.518V119.109
		c0-6.588,3.45-11.503,6.528-11.503h7.471v247.771v38.812c0,3.287,2.665,5.952,5.949,5.952h194.751
		c8.697,0,15.309,2.315,19.661,6.886c1.192,1.407,3.885,3.536,9.295,3.536c5.404,0,8.168-2.254,9.314-3.549
		c4.358-4.558,10.97-6.873,19.649-6.873h194.758c3.286,0,5.951-2.665,5.951-5.952V107.606h7.472c3.523,0,7.458,4.726,7.458,11.503
		V399.631z"/>
</g>
</svg>
