<?xml version="1.0" encoding="utf-8"?>
<!-- Generator: Adobe Illustrator 15.1.0, SVG Export Plug-In . SVG Version: 6.00 Build 0)  -->
<!DOCTYPE svg PUBLIC "-//W3C//DTD SVG 1.1//EN" "http://www.w3.org/Graphics/SVG/1.1/DTD/svg11.dtd">
<svg version="1.1" id="Layer_1" xmlns="http://www.w3.org/2000/svg" xmlns:xlink="http://www.w3.org/1999/xlink" x="0px" y="0px"
	 width="512px" height="512px" viewBox="0 0 512 512" enable-background="new 0 0 512 512" xml:space="preserve">
<g id="svgGrid" display="none">
	<line display="inline" fill="none" stroke="#B35047" x1="32" y1="0" x2="32" y2="512"/>
	<line display="inline" fill="none" stroke="#B35047" x1="64" y1="0" x2="64" y2="512"/>
	<line display="inline" fill="none" stroke="#B35047" x1="96" y1="0" x2="96" y2="512"/>
	<line display="inline" fill="none" stroke="#B35047" x1="128" y1="0" x2="128" y2="512"/>
	<line display="inline" fill="none" stroke="#B35047" x1="160" y1="0" x2="160" y2="512"/>
	<line display="inline" fill="none" stroke="#B35047" x1="192" y1="0" x2="192" y2="512"/>
	<line display="inline" fill="none" stroke="#B35047" x1="224" y1="0" x2="224" y2="512"/>
	<line display="inline" fill="none" stroke="#B35047" x1="256" y1="0" x2="256" y2="512"/>
	<line display="inline" fill="none" stroke="#B35047" x1="288" y1="0" x2="288" y2="512"/>
	<line display="inline" fill="none" stroke="#B35047" x1="320" y1="0" x2="320" y2="512"/>
	<line display="inline" fill="none" stroke="#B35047" x1="352" y1="0" x2="352" y2="512"/>
	<line display="inline" fill="none" stroke="#B35047" x1="384" y1="0" x2="384" y2="512"/>
	<line display="inline" fill="none" stroke="#B35047" x1="416" y1="0" x2="416" y2="512"/>
	<line display="inline" fill="none" stroke="#B35047" x1="448" y1="0" x2="448" y2="512"/>
	<line display="inline" fill="none" stroke="#B35047" x1="480" y1="0" x2="480" y2="512"/>
	<line display="inline" fill="none" stroke="#B35047" x1="0" y1="32" x2="512" y2="32"/>
	<line display="inline" fill="none" stroke="#B35047" x1="0" y1="64" x2="512" y2="64"/>
	<line display="inline" fill="none" stroke="#B35047" x1="0" y1="96" x2="512" y2="96"/>
	<line display="inline" fill="none" stroke="#B35047" x1="0" y1="128" x2="512" y2="128"/>
	<line display="inline" fill="none" stroke="#B35047" x1="0" y1="160" x2="512" y2="160"/>
	<line display="inline" fill="none" stroke="#B35047" x1="0" y1="192" x2="512" y2="192"/>
	<line display="inline" fill="none" stroke="#B35047" x1="0" y1="224" x2="512" y2="224"/>
	<line display="inline" fill="none" stroke="#B35047" x1="0" y1="256" x2="512" y2="256"/>
	<line display="inline" fill="none" stroke="#B35047" x1="0" y1="288" x2="512" y2="288"/>
	<line display="inline" fill="none" stroke="#B35047" x1="0" y1="320" x2="512" y2="320"/>
	<line display="inline" fill="none" stroke="#B35047" x1="0" y1="352" x2="512" y2="352"/>
	<line display="inline" fill="none" stroke="#B35047" x1="0" y1="384" x2="512" y2="384"/>
	<line display="inline" fill="none" stroke="#B35047" x1="0" y1="416" x2="512" y2="416"/>
	<line display="inline" fill="none" stroke="#B35047" x1="0" y1="448" x2="512" y2="448"/>
	<line display="inline" fill="none" stroke="#B35047" x1="0" y1="480" x2="512" y2="480"/>
	<rect x="0" y="0" display="inline" fill="none" stroke="#B35047" width="512" height="512"/>
</g>
<g>
	<path fill="#1D1D1B" d="M231.321,339.367c-0.607-0.445-6.422-4.281-22.417-4.281H95.815c-1.257,0-2.273,1.023-2.273,2.274
		c0,1.262,1.016,2.275,2.273,2.275h113.089c14.39,0,19.642,3.339,19.791,3.443c0.397,0.269,0.852,0.402,1.302,0.402
		c0.709,0,1.409-0.33,1.849-0.952C232.574,341.517,232.341,340.092,231.321,339.367z"/>
	<path fill="#1D1D1B" d="M95.815,315.562h113.084c14.392,0,19.637,3.35,19.792,3.453c0.396,0.279,0.851,0.414,1.305,0.414
		c0.711,0,1.399-0.331,1.844-0.952c0.737-1.023,0.509-2.439-0.514-3.174c-0.613-0.445-6.422-4.303-22.427-4.303H95.815
		c-1.26,0-2.284,1.023-2.284,2.274C93.531,314.538,94.554,315.562,95.815,315.562z"/>
	<path fill="#1D1D1B" d="M95.815,291.489h113.084c14.386,0,19.626,3.359,19.779,3.464c0.404,0.279,0.864,0.414,1.318,0.414
		c0.706,0,1.399-0.332,1.844-0.94c0.742-1.024,0.514-2.452-0.502-3.187c-0.615-0.444-6.43-4.322-22.439-4.322H95.815
		c-1.26,0-2.289,1.022-2.289,2.286C93.526,290.466,94.554,291.489,95.815,291.489z"/>
	<path fill="#1D1D1B" d="M95.815,267.415h113.084c14.386,0,19.622,3.373,19.774,3.476c0.404,0.279,0.869,0.425,1.324,0.425
		c0.711,0,1.404-0.332,1.849-0.952c0.742-1.023,0.52-2.451-0.502-3.196c-0.616-0.444-6.436-4.335-22.444-4.335H95.815
		c-1.26,0-2.294,1.025-2.294,2.288C93.52,266.382,94.554,267.415,95.815,267.415z"/>
	<path fill="#1D1D1B" d="M95.815,243.332h113.084c14.374,0,19.616,3.394,19.764,3.494c0.409,0.285,0.874,0.425,1.333,0.425
		c0.706,0,1.404-0.329,1.849-0.943c0.752-1.021,0.531-2.457-0.49-3.203c-0.616-0.444-6.435-4.363-22.456-4.363H95.815
		c-1.267,0-2.299,1.028-2.299,2.293C93.515,242.304,94.548,243.332,95.815,243.332z"/>
	<path fill="#1D1D1B" d="M95.815,219.253h113.084c14.374,0,19.605,3.41,19.759,3.512c0.408,0.287,0.874,0.429,1.338,0.429
		c0.706,0,1.399-0.322,1.849-0.943c0.752-1.016,0.536-2.456-0.485-3.208c-0.616-0.445-6.439-4.39-22.46-4.39H95.815
		c-1.272,0-2.304,1.034-2.304,2.299C93.511,218.226,94.542,219.253,95.815,219.253z"/>
	<path fill="#1D1D1B" d="M95.815,195.179h113.084c14.363,0,19.605,3.419,19.753,3.526c0.409,0.286,0.88,0.429,1.345,0.429
		c0.707,0,1.404-0.329,1.854-0.942c0.758-1.022,0.54-2.462-0.486-3.22c-0.616-0.45-6.439-4.406-22.465-4.406H95.815
		c-1.272,0-2.309,1.034-2.309,2.304C93.506,194.148,94.542,195.179,95.815,195.179z"/>
	<path fill="#1D1D1B" d="M95.815,171.105h113.084c14.363,0,19.601,3.431,19.743,3.537c0.414,0.298,0.885,0.435,1.354,0.435
		c0.706,0,1.399-0.329,1.854-0.938c0.763-1.021,0.546-2.473-0.476-3.229c-0.615-0.45-6.441-4.426-22.475-4.426H95.815
		c-1.277,0-2.314,1.031-2.314,2.308C93.5,170.069,94.537,171.105,95.815,171.105z"/>
	<path fill="#1D1D1B" d="M95.815,147.028h113.084c14.358,0,19.591,3.445,19.738,3.552c0.414,0.296,0.89,0.438,1.359,0.438
		c0.706,0,1.399-0.327,1.854-0.936c0.768-1.021,0.556-2.479-0.476-3.235c-0.61-0.455-6.437-4.452-22.475-4.452H95.815
		c-1.277,0-2.314,1.04-2.314,2.319C93.5,145.991,94.537,147.028,95.815,147.028z"/>
	<path fill="#1D1D1B" d="M279.413,271.219c0.444,0,0.88-0.134,1.281-0.392c0.053-0.031,5.265-3.434,19.804-3.434h113.077
		c1.262,0,2.273-1.023,2.273-2.274c0-1.263-1.013-2.277-2.273-2.277H300.498c-15.998,0-21.819,3.838-22.429,4.273
		c-1.003,0.723-1.241,2.12-0.528,3.133C277.981,270.894,278.689,271.219,279.413,271.219z"/>
	<path fill="#1D1D1B" d="M279.413,247.141c0.444,0,0.889-0.12,1.281-0.393c0.053-0.036,5.265-3.44,19.804-3.44h113.077
		c1.262,0,2.273-1.018,2.273-2.271c0-1.262-1.013-2.277-2.273-2.277H300.498c-15.998,0-21.819,3.84-22.429,4.274
		c-1.003,0.718-1.241,2.117-0.528,3.133C277.981,246.808,278.689,247.141,279.413,247.141z"/>
	<path fill="#1D1D1B" d="M279.413,223.063c0.444,0,0.899-0.111,1.281-0.393c0.053-0.042,5.265-3.445,19.804-3.445h113.077
		c1.262,0,2.273-1.013,2.273-2.271c0-1.256-1.013-2.277-2.273-2.277H300.498c-15.998,0-21.819,3.84-22.429,4.274
		c-1.003,0.718-1.241,2.122-0.528,3.138C277.981,222.729,278.689,223.063,279.413,223.063z"/>
	<path fill="#1D1D1B" d="M279.413,198.979c0.444,0,0.889-0.121,1.281-0.391c0.053-0.038,5.265-3.442,19.804-3.442h113.077
		c1.262,0,2.273-1.017,2.273-2.27c0-1.262-1.013-2.277-2.273-2.277H300.498c-15.998,0-21.819,3.839-22.429,4.273
		c-1.003,0.719-1.241,2.117-0.528,3.133C277.981,198.646,278.689,198.979,279.413,198.979z"/>
	<path fill="#1D1D1B" d="M279.413,174.895c0.444,0,0.88-0.136,1.281-0.393c0.053-0.03,5.265-3.436,19.804-3.436h113.077
		c1.262,0,2.273-1.017,2.273-2.27c0-1.266-1.013-2.277-2.273-2.277H300.498c-15.998,0-21.819,3.839-22.429,4.274
		c-1.003,0.718-1.241,2.111-0.528,3.128C277.981,174.562,278.689,174.895,279.413,174.895z"/>
	<path fill="#1D1D1B" d="M279.413,150.817c0.444,0,0.889-0.126,1.281-0.392c0.053-0.038,5.265-3.442,19.804-3.442h113.077
		c1.262,0,2.273-1.017,2.273-2.27c0-1.262-1.013-2.277-2.273-2.277H300.498c-15.998,0-21.819,3.839-22.429,4.274
		c-1.003,0.719-1.241,2.116-0.528,3.132C277.981,150.484,278.689,150.817,279.413,150.817z"/>
	<path fill="#1D1D1B" d="M452.55,122.905h-6.206v-9.704c0-2.728-2.214-4.94-4.942-4.94h-161.74c-12.729,0-19.989,4.792-24.054,9.41
		c-4.058-4.618-11.313-9.41-24.047-9.41H69.825c-2.727,0-4.94,2.213-4.94,4.94v9.705h-6.206c-8.427,0-15.278,8.704-15.278,19.41
		v232.965c0,10.712,8.709,19.421,19.415,19.421h164.256c3.648,2.761,13.56,9.037,28.611,9.037c15.033,0,24.857-6.267,28.486-9.037
		h165.019c10.704,0,19.41-8.708,19.41-19.421V142.315C468.598,131.61,461.401,122.905,452.55,122.905z M259.382,130.371
		c0.083-0.091,0.135-0.188,0.207-0.288c0.227-0.317,0.384-0.65,0.527-1.01c0.073-0.187,0.207-0.324,0.269-0.521
		c0.114-0.424,3.195-10.408,19.276-10.408h156.798v141.82c-1.537,3.5-3.939,6.772-7.229,9.782c-0.156,0.093-0.331,0.14-0.455,0.253
		l-2.699,2.312c-18.706,13.976-53.209,17.311-69.01,13.423c-1.112-0.273-2.255-0.048-3.154,0.63c-0.202,0.15-0.315,0.378-0.48,0.569
		h-52.934c-15.999,0-21.82,3.831-22.431,4.266c-1.003,0.724-1.24,2.121-0.527,3.133c0.435,0.642,1.147,0.973,1.872,0.973
		c0.444,0,0.889-0.123,1.281-0.393c0.053-0.031,5.265-3.434,19.805-3.434h51.843c-0.072,1.329-0.196,3.138-0.413,5.372l-0.698,6.019
		c-0.342,2.481-0.822,5.259-1.376,8.133h-49.355c-15.999,0-21.82,3.837-22.431,4.271c-1.003,0.725-1.229,2.121-0.527,3.144
		c0.444,0.642,1.147,0.973,1.872,0.973c0.444,0,0.889-0.124,1.281-0.393c0.053-0.042,5.265-3.443,19.805-3.443h48.426
		c-1.06,4.658-2.436,9.58-4.225,14.472l-2.036,5.062h-42.165c-15.998,0-21.819,3.836-22.429,4.271
		c-1.003,0.724-1.241,2.121-0.528,3.144c0.434,0.632,1.147,0.972,1.872,0.972c0.444,0,0.889-0.133,1.281-0.393
		c0.053-0.042,5.265-3.442,19.804-3.442h40.03c-2.783,5.526-6.18,10.732-10.414,15.106l-2.456,2.109
		c-0.254,0.233-0.435,0.518-0.61,0.802c-4.261,3.661-9.26,6.489-15.076,8.164h-32.309c-9.618,0-16.045,2.834-20.278,5.978V130.371
		H259.382z M430.725,278.051c0.149-0.109,0.316-0.213,0.47-0.33c1.996-1.521,3.692-3.17,5.265-4.871v92.969H328.315
		c2.461-1.705,4.813-3.562,6.938-5.743L430.725,278.051z M349.612,338.007c6.354-14.518,9.322-30.888,10.093-44.289
		c12.012,1.81,29.723,0.807,45.964-3.862L349.612,338.007z M74.771,338.529V118.145h156.79c16,0,19.131,9.879,19.279,10.402
		c0.064,0.229,0.211,0.404,0.307,0.616c0.117,0.263,0.223,0.522,0.38,0.768c0.102,0.157,0.187,0.329,0.308,0.476v241.389
		c-4.229-3.154-10.667-5.978-20.273-5.978H74.771V338.529z M458.743,375.281c0,5.273-4.291,9.565-9.557,9.565H282.753
		c-0.042,0-0.072,0.021-0.114,0.021c-1.263-0.053-2.544,0.372-3.547,1.282c-0.342,0.32-8.635,7.735-23.409,7.735
		c-12.516,0-20.411-5.285-22.776-7.115c-0.903-1.146-2.241-1.923-3.813-1.923H62.817c-5.269,0-9.558-4.292-9.558-9.565V142.315
		c0-5.472,2.864-9.553,5.42-9.553h6.205v205.767v32.232c0,2.729,2.213,4.943,4.94,4.943H231.56c7.223,0,12.714,1.922,16.328,5.718
		c0.99,1.169,3.227,2.937,7.719,2.937c4.488,0,6.783-1.871,7.735-2.946c3.62-3.786,9.11-5.708,16.317-5.708h161.741
		c2.729,0,4.942-2.214,4.942-4.943V132.762h6.206c2.925,0,6.193,3.924,6.193,9.553L458.743,375.281L458.743,375.281z"/>
</g>
</svg>
