<?xml version="1.0" encoding="utf-8"?>
<!-- Generator: Adobe Illustrator 15.1.0, SVG Export Plug-In . SVG Version: 6.00 Build 0)  -->
<!DOCTYPE svg PUBLIC "-//W3C//DTD SVG 1.1//EN" "http://www.w3.org/Graphics/SVG/1.1/DTD/svg11.dtd">
<svg version="1.1" id="Layer_1" xmlns="http://www.w3.org/2000/svg" xmlns:xlink="http://www.w3.org/1999/xlink" x="0px" y="0px"
	 width="144px" height="144px" viewBox="0 0 144 144" enable-background="new 0 0 144 144" xml:space="preserve">
<g>
	<g>
		<g>
			<path d="M96.924,108.228l-4.92-6.142c-0.062-0.676-0.391-1.27-0.877-1.69c0.541-0.47,0.887-1.153,0.887-1.922V76.97
				c0-1.41-1.146-2.557-2.557-2.557H54.943c-1.41,0-2.553,1.146-2.553,2.557v21.504c0,0.769,0.348,1.452,0.886,1.922
				c-0.485,0.416-0.812,1.009-0.874,1.678l-5.311,6.133c-0.1,0.115-0.153,0.265-0.153,0.414c0,1.695,0.647,2.556,1.927,2.556h46.27
				c1.279,0,1.926-0.86,1.926-2.556C97.061,108.478,97.016,108.341,96.924,108.228 M53.993,98.367V77.265
				c0-0.699,0.572-1.267,1.271-1.267h33.868c0.699,0,1.27,0.567,1.27,1.267v21.103c0,0.699-0.57,1.268-1.27,1.268H55.263
				C54.565,99.635,53.993,99.066,53.993,98.367 M94.701,109.592H49.296c-0.271,0-0.604,0-0.645-1.042l5.193-6
				c0.095-0.113,0.147-0.256,0.147-0.403c0-0.703,0.572-1.272,1.271-1.272h33.868c0.699,0,1.27,0.569,1.27,1.272
				c0,0.138,0.049,0.276,0.135,0.386l4.814,6.004C95.309,109.592,94.975,109.592,94.701,109.592 M87.471,77.431H73.164
				c0.006-0.043,0.012-0.085,0.012-0.129c0-0.538-0.436-0.976-0.976-0.976c-0.535,0-0.973,0.438-0.973,0.976
				c0,0.044,0.009,0.086,0.013,0.129H56.932c-0.853,0-1.548,0.741-1.548,1.652V96.79c0,0.915,0.695,1.656,1.548,1.656h30.539
				c0.854,0,1.545-0.741,1.545-1.656V79.083C89.016,78.172,88.324,77.431,87.471,77.431 M88.088,96.79
				c0,0.398-0.277,0.726-0.617,0.726H56.932c-0.34,0-0.616-0.327-0.616-0.726V79.083c0-0.396,0.276-0.726,0.616-0.726h30.539
				c0.34,0,0.617,0.329,0.617,0.726V96.79z M54.979,102.427c0-0.174,0.138-0.311,0.312-0.311h33.881
				c0.172,0,0.311,0.137,0.311,0.311c0,0.17-0.139,0.309-0.311,0.309H55.291C55.117,102.735,54.979,102.597,54.979,102.427
				 M53.871,104.517c0-0.17,0.139-0.309,0.312-0.309h35.941c0.168,0,0.307,0.139,0.307,0.309c0,0.172-0.139,0.311-0.307,0.311
				H54.182C54.009,104.827,53.871,104.688,53.871,104.517 M52.365,106.298H91.32c0.17,0,0.309,0.14,0.309,0.312
				c0,0.172-0.139,0.309-0.309,0.309H52.365c-0.172,0-0.312-0.137-0.312-0.309C52.053,106.438,52.193,106.298,52.365,106.298
				 M84.059,82.856c0.096,0.143,0.057,0.334-0.082,0.432l-8.922,5.991C75,89.313,74.941,89.33,74.883,89.33
				c-0.102,0-0.197-0.047-0.26-0.136c-0.096-0.141-0.059-0.334,0.086-0.43l8.92-5.989C83.771,82.679,83.965,82.715,84.059,82.856
				 M79.555,88.199c0.094,0.141,0.059,0.335-0.082,0.433l-7.069,4.773c-0.053,0.036-0.111,0.052-0.172,0.052
				c-0.102,0-0.199-0.048-0.258-0.137c-0.096-0.141-0.06-0.333,0.083-0.429l7.066-4.774C79.264,88.021,79.459,88.059,79.555,88.199"
				/>
			<path d="M72,51.683c6.866,0,12.45-5.585,12.45-12.45c0-6.865-5.584-12.45-12.45-12.45c-6.864,0-12.449,5.585-12.449,12.45
				C59.55,46.098,65.135,51.683,72,51.683 M72,28.559c5.885,0,10.672,4.788,10.672,10.674c0,5.886-4.787,10.674-10.672,10.674
				c-5.885,0-10.672-4.788-10.672-10.674C61.328,33.347,66.115,28.559,72,28.559"/>
			<path d="M55.291,102.735h33.881c0.172,0,0.311-0.139,0.311-0.309c0-0.174-0.139-0.311-0.311-0.311H55.291
				c-0.174,0-0.312,0.137-0.312,0.311C54.979,102.597,55.117,102.735,55.291,102.735"/>
			<path d="M92.014,94.683c0.006-0.005,0.014-0.006,0.018-0.01c3.371-2.623,6.49-5.762,6.49-10.926v-9.939
				c0-12.698-6.992-19.691-19.689-19.691H65.164c-12.694,0-19.686,6.993-19.686,19.691v9.939c0,5.441,3.541,8.663,6.912,11.245
				v3.481c0,0.769,0.348,1.452,0.886,1.922c-0.485,0.416-0.812,1.009-0.874,1.678l-5.311,6.133
				c-0.099,0.115-0.153,0.264-0.153,0.414c0,1.695,0.647,2.556,1.927,2.556h46.27c1.279,0,1.926-0.86,1.926-2.556
				c0-0.143-0.045-0.279-0.137-0.393l-4.92-6.142c-0.062-0.676-0.391-1.27-0.877-1.69c0.541-0.47,0.887-1.153,0.887-1.922V94.683z
				 M47.255,83.747v-9.939c0-8.173,3.106-17.916,17.908-17.916h13.668c14.805,0,17.912,9.743,17.912,17.916v9.939
				c0,3.709-1.855,6.224-4.73,8.649V76.969c0-1.409-1.146-2.556-2.557-2.556h-1.426v-5.595c0-0.49-0.398-0.889-0.889-0.889
				s-0.889,0.398-0.889,0.889v5.595H57.66v-5.595c0-0.49-0.398-0.889-0.889-0.889s-0.889,0.398-0.889,0.889v5.595h-0.939
				c-1.41,0-2.553,1.146-2.553,2.556v15.755C49.191,90.095,47.255,87.533,47.255,83.747 M89.131,75.998
				c0.699,0,1.27,0.567,1.27,1.267v21.103c0,0.699-0.57,1.268-1.27,1.268H55.263c-0.698,0-1.27-0.568-1.27-1.268V77.265
				c0-0.699,0.571-1.267,1.27-1.267H89.131z M95.35,108.536c-0.041,1.056-0.375,1.056-0.648,1.056H49.296
				c-0.271,0-0.604,0-0.645-1.042l5.193-6c0.095-0.113,0.148-0.256,0.148-0.403c0-0.703,0.571-1.272,1.27-1.272h33.868
				c0.699,0,1.27,0.569,1.27,1.272c0,0.138,0.049,0.276,0.135,0.386L95.35,108.536z"/>
			<path d="M74.883,89.33c0.059,0,0.117-0.017,0.172-0.051l8.922-5.991c0.141-0.098,0.178-0.289,0.082-0.432
				c-0.094-0.142-0.287-0.178-0.43-0.081l-8.92,5.989c-0.145,0.096-0.18,0.289-0.086,0.43C74.686,89.283,74.781,89.33,74.883,89.33"
				/>
			<path d="M54.182,104.827h35.941c0.168,0,0.307-0.139,0.307-0.311c0-0.17-0.139-0.309-0.307-0.309H54.182
				c-0.173,0-0.312,0.139-0.312,0.309C53.871,104.688,54.009,104.827,54.182,104.827"/>
			<path d="M56.932,98.446h30.539c0.854,0,1.545-0.741,1.545-1.656V79.083c0-0.911-0.691-1.652-1.545-1.652H73.164
				c0.006-0.043,0.012-0.085,0.012-0.129c0-0.538-0.436-0.976-0.975-0.976c-0.536,0-0.974,0.438-0.974,0.976
				c0,0.044,0.009,0.086,0.013,0.129H56.932c-0.853,0-1.548,0.741-1.548,1.652V96.79C55.384,97.705,56.08,98.446,56.932,98.446
				 M56.316,79.083c0-0.396,0.275-0.726,0.616-0.726h30.539c0.34,0,0.617,0.33,0.617,0.726V96.79c0,0.398-0.277,0.726-0.617,0.726
				H56.932c-0.341,0-0.616-0.327-0.616-0.726V79.083z"/>
			<path d="M72.232,93.457c0.061,0,0.119-0.016,0.172-0.052l7.069-4.773c0.141-0.098,0.176-0.292,0.082-0.433
				c-0.096-0.141-0.291-0.178-0.432-0.082l-7.066,4.774c-0.143,0.096-0.179,0.288-0.083,0.429
				C72.033,93.409,72.13,93.457,72.232,93.457"/>
			<path d="M52.053,106.61c0,0.172,0.14,0.309,0.312,0.309H91.32c0.172,0,0.309-0.137,0.309-0.309c0-0.173-0.137-0.312-0.309-0.312
				H52.365C52.193,106.298,52.053,106.438,52.053,106.61"/>
		</g>
	</g>
</g>
</svg>
